<svg width="6" height="6" viewBox="0 0 6 6" fill="none" xmlns="http://www.w3.org/2000/svg">
<path d="M5.8666 3.04235L3.89069 5.73771C3.83447 5.8144 3.7632 5.87743 3.68175 5.92252C3.6003 5.96761 3.51057 5.99369 3.41867 5.99899C3.32678 6.00429 3.23488 5.98868 3.14923 5.95322C3.06359 5.91777 2.98621 5.8633 2.92236 5.79353L0.685498 3.34875C0.313816 3.04396 0.0722239 2.5964 0.0137544 2.10432C-0.044715 1.61224 0.084717 1.11585 0.373638 0.724108C0.662559 0.332369 1.08736 0.0773015 1.55478 0.014891C2.02221 -0.0475196 2.49407 0.087828 2.86677 0.391227L5.6723 2.04235C5.75261 2.08965 5.82229 2.15461 5.8766 2.23282C5.93091 2.31102 5.96857 2.40062 5.98701 2.49552C6.00545 2.59042 6.00424 2.68839 5.98347 2.78276C5.96269 2.87712 5.92282 2.96566 5.8666 3.04235Z" fill="#6C63FF"/>
</svg>
