<svg width="37" height="32" viewBox="0 0 37 32" fill="none" xmlns="http://www.w3.org/2000/svg">
<path d="M37 16C37 24.8385 28.7166 32 18.5 32C8.28345 32 0 24.8385 0 16C0 7.16664 8.28345 0 18.5 0C28.7166 0 37 7.16664 37 16ZM18.9964 5.29032C14.9311 5.29032 12.3383 6.77142 10.3023 9.40374C10.0385 9.74477 10.1267 10.2047 10.5048 10.4526L13.0932 12.1501C13.4815 12.4047 14.0347 12.3441 14.3364 12.0132C15.669 10.5514 16.5827 9.70368 18.611 9.70368C20.1349 9.70368 22.0199 10.5519 22.0199 11.83C22.0199 12.7962 21.0977 13.2924 19.593 14.022C17.8382 14.8728 15.5161 15.9317 15.5161 18.5806V18.8387C15.5161 19.2663 15.9169 19.6129 16.4113 19.6129H20.5887C21.0831 19.6129 21.4839 19.2663 21.4839 18.8387V18.7527C21.4839 16.9165 27.6893 16.84 27.6893 11.871C27.6893 8.1289 23.2012 5.29032 18.9964 5.29032ZM18.5 21.2903C16.6079 21.2903 15.0685 22.6216 15.0685 24.2581C15.0685 25.8945 16.6079 27.2258 18.5 27.2258C20.3921 27.2258 21.9315 25.8945 21.9315 24.2581C21.9315 22.6216 20.3921 21.2903 18.5 21.2903Z" fill="white"/>
</svg>
