<svg width="25" height="24" viewBox="0 0 25 24" fill="none" xmlns="http://www.w3.org/2000/svg">
<path d="M12.0356 18.3507C12.9844 18.3507 13.851 18.2499 14.6413 18.0757L12.8791 16.3562C12.6053 16.3767 12.3274 16.3934 12.0356 16.3934C6.66858 16.3934 4.58939 12.6294 4.08589 11.5C4.46396 10.6767 4.97458 9.91782 5.59839 9.25198L4.19622 7.88379C2.65363 9.51525 2.06889 11.1584 2.05786 11.1907C1.98867 11.3917 1.98867 11.6093 2.05786 11.8102C2.07892 11.8748 4.37977 18.3507 12.0356 18.3507ZM12.0356 4.64927C10.1931 4.64927 8.67957 5.03683 7.41781 5.60935L3.7178 2L2.29957 3.38385L20.3533 21L21.7715 19.6162L18.4426 16.3679C21.0644 14.4585 22.0002 11.8513 22.0143 11.8102C22.0834 11.6093 22.0834 11.3917 22.0143 11.1907C21.9922 11.1252 19.6913 4.64927 12.0356 4.64927ZM17.0224 14.9821L14.7356 12.7507C14.9262 12.3691 15.0445 11.9492 15.0445 11.5C15.0445 9.89399 13.6815 8.56397 12.0356 8.56397C11.5752 8.56397 11.1449 8.67946 10.7547 8.86638L8.94135 7.09694C9.93683 6.76362 10.9831 6.59782 12.0356 6.60662C17.4025 6.60662 19.4817 10.3706 19.9852 11.5C19.6823 12.1772 18.8157 13.7921 17.0224 14.9821Z" fill="#A09F99"/>
</svg>
