<svg width="25" height="23" viewBox="0 0 25 23" fill="none" xmlns="http://www.w3.org/2000/svg">
<g filter="url(#filter0_d_235_151)">
<path d="M19.1111 0H5.8889C4.84991 0 4 0.700862 4 1.55764V12.461C4 13.3178 4.84991 14.0187 5.8889 14.0187H19.1111C20.1501 14.0187 21 13.3178 21 12.461V1.55764C21 0.700862 20.1501 0 19.1111 0ZM10.6111 10.9034L5.8889 7.00935L7.21101 5.9191L10.6111 8.72291L17.789 2.80381L19.1111 3.89409L10.6111 10.9034Z" fill="#4CAF50"/>
<path d="M10.293 11.2892L10.6111 11.5515L10.9292 11.2892L19.4292 4.27985L19.897 3.8941L19.4292 3.50834L18.1071 2.41806L17.789 2.15573L17.4709 2.41805L10.6111 8.07484L7.52911 5.53334L7.21101 5.27102L6.8929 5.53334L5.5708 6.62359L5.103 7.00934L5.5708 7.3951L10.293 11.2892ZM5.8889 0.5H19.1111C19.9685 0.5 20.5 1.06288 20.5 1.55764V12.461C20.5 12.9558 19.9685 13.5187 19.1111 13.5187H5.8889C5.03153 13.5187 4.5 12.9558 4.5 12.461V1.55764C4.5 1.06288 5.03153 0.5 5.8889 0.5Z" stroke="black" stroke-opacity="0.5"/>
</g>
<defs>
<filter id="filter0_d_235_151" x="0" y="0" width="25" height="22.0187" filterUnits="userSpaceOnUse" color-interpolation-filters="sRGB">
<feFlood flood-opacity="0" result="BackgroundImageFix"/>
<feColorMatrix in="SourceAlpha" type="matrix" values="0 0 0 0 0 0 0 0 0 0 0 0 0 0 0 0 0 0 127 0" result="hardAlpha"/>
<feOffset dy="4"/>
<feGaussianBlur stdDeviation="2"/>
<feComposite in2="hardAlpha" operator="out"/>
<feColorMatrix type="matrix" values="0 0 0 0 0 0 0 0 0 0 0 0 0 0 0 0 0 0 0.25 0"/>
<feBlend mode="normal" in2="BackgroundImageFix" result="effect1_dropShadow_235_151"/>
<feBlend mode="normal" in="SourceGraphic" in2="effect1_dropShadow_235_151" result="shape"/>
</filter>
</defs>
</svg>
