<svg width="149" height="138" viewBox="0 0 149 138" fill="none" xmlns="http://www.w3.org/2000/svg">
<path d="M143.096 0.000868519H98.3699C96.2116 0.000747308 94.1175 0.842706 92.4318 2.38834C90.7461 3.93397 89.5691 6.09128 89.0944 8.50565L66.4956 123.452C66.2491 124.706 66.2448 126.006 66.4829 127.262C66.721 128.518 67.1958 129.699 67.8741 130.722C68.5523 131.745 69.4175 132.586 70.409 133.185C71.4005 133.784 72.4944 134.128 73.6138 134.191L119.593 136.789C122.055 136.928 124.477 136.035 126.407 134.277C128.337 132.518 129.643 130.015 130.082 127.233L142.902 45.9655L143.856 46.278L146.31 30.8745L145.328 30.5931L148.906 7.90819C149.06 6.93651 149.024 5.93801 148.803 4.98387C148.581 4.02973 148.178 3.14345 147.623 2.38821C147.069 1.63297 146.375 1.02738 145.593 0.614615C144.811 0.201847 143.959 -0.00793373 143.098 0.000229413L143.096 0.000868519Z" fill="#3F3D56"/>
<path d="M104.257 2.47833H99.0371C97.5378 2.47834 96.0836 3.06634 94.9158 4.14472C93.7481 5.22309 92.9371 6.72698 92.6175 8.40673L70.925 122.415C70.8001 123.072 70.8002 123.751 70.9253 124.408C71.0504 125.064 71.2976 125.682 71.65 126.218C72.0024 126.755 72.4517 127.198 72.9672 127.518C73.4827 127.837 74.0522 128.025 74.6369 128.069L120.466 131.513C121.759 131.611 123.038 131.158 124.059 130.243C125.08 129.328 125.771 128.014 126.001 126.552L144.511 8.71304C144.631 7.95034 144.603 7.1668 144.43 6.41769C144.257 5.66858 143.942 4.97217 143.509 4.3776C143.075 3.78302 142.533 3.30478 141.921 2.97661C141.309 2.64844 140.641 2.47834 139.966 2.47833H135.013C134.534 2.47831 134.068 2.6595 133.687 2.99386C133.307 3.32821 133.033 3.79707 132.908 4.32785C132.798 4.7966 132.557 5.21065 132.221 5.50587C131.884 5.80109 131.473 5.96099 131.05 5.96081H107.538C106.709 5.96078 105.911 5.60211 105.303 4.95648C104.694 4.31086 104.321 3.42584 104.257 2.47833Z" fill="white"/>
<path d="M129.592 82.1799C129.681 82.1834 129.768 82.1501 129.838 82.086C129.907 82.0219 129.954 81.9313 129.97 81.8307L140.105 17.6896C140.115 17.6286 140.113 17.566 140.1 17.5059C140.086 17.4459 140.062 17.3899 140.028 17.3417C139.994 17.2939 139.952 17.2552 139.903 17.2283C139.855 17.2015 139.803 17.1871 139.749 17.1863L93.6392 16.5618H93.6349C93.5512 16.5626 93.4702 16.596 93.4052 16.6565C93.3402 16.717 93.295 16.801 93.2771 16.8947L81.3293 78.954C81.3176 79.0146 81.3175 79.0773 81.3289 79.138C81.3403 79.1986 81.363 79.2557 81.3955 79.3053C81.4276 79.3545 81.4688 79.3951 81.5161 79.424C81.5634 79.4529 81.6157 79.4695 81.6693 79.4726L129.592 82.1799Z" fill="#E6E6E6"/>
<path d="M89.578 86.327C89.5361 86.3271 89.4954 86.3434 89.4626 86.3733C89.4298 86.4032 89.4067 86.445 89.3972 86.4918L88.9654 88.6139C88.9593 88.6439 88.9589 88.6751 88.9643 88.7052C88.9697 88.7354 88.9807 88.7639 88.9966 88.7887C89.0125 88.8135 89.0329 88.834 89.0564 88.849C89.0799 88.8639 89.1059 88.8728 89.1327 88.875L113.526 90.8631C113.571 90.8664 113.616 90.8508 113.652 90.8192C113.688 90.7875 113.713 90.742 113.722 90.6911L114.137 88.2358C114.142 88.206 114.141 88.1753 114.135 88.1458C114.129 88.1163 114.118 88.0886 114.101 88.0646C114.085 88.0407 114.065 88.021 114.041 88.0068C114.018 87.9927 113.992 87.9844 113.966 87.9826L89.5894 86.3274L89.578 86.327Z" fill="#E6E6E6"/>
<path d="M119.215 98.7456C119.258 98.7497 119.302 98.7356 119.338 98.706C119.374 98.6764 119.399 98.6332 119.41 98.5841L119.939 96.1237C119.945 96.0935 119.946 96.0621 119.94 96.0316C119.935 96.0011 119.924 95.9723 119.908 95.9472C119.892 95.9221 119.872 95.9013 119.848 95.8862C119.825 95.8712 119.798 95.8622 119.771 95.86L88.6194 93.3617C88.5771 93.3578 88.535 93.3708 88.5001 93.3985C88.4652 93.4262 88.4398 93.4669 88.4281 93.5137L87.8788 95.6398C87.871 95.6702 87.8692 95.7022 87.8735 95.7335C87.8778 95.7648 87.8882 95.7946 87.9038 95.8208C87.9194 95.8469 87.9399 95.8687 87.9639 95.8846C87.9878 95.9005 88.0145 95.9101 88.042 95.9127L119.215 98.7456Z" fill="#E6E6E6"/>
<path d="M117.542 106.632C117.586 106.636 117.63 106.622 117.665 106.593C117.701 106.563 117.727 106.52 117.737 106.471L118.266 104.01C118.272 103.98 118.273 103.949 118.268 103.918C118.263 103.888 118.252 103.859 118.236 103.834C118.22 103.809 118.199 103.788 118.175 103.773C118.152 103.758 118.126 103.749 118.099 103.747L86.9467 101.248C86.9044 101.244 86.8622 101.257 86.8274 101.285C86.7925 101.313 86.7671 101.354 86.7554 101.4L86.2061 103.526C86.1983 103.557 86.1964 103.589 86.2008 103.62C86.2051 103.651 86.2155 103.681 86.2311 103.707C86.2467 103.734 86.2672 103.755 86.2911 103.771C86.3151 103.787 86.3418 103.797 86.3693 103.799L117.542 106.632Z" fill="#E6E6E6"/>
<path d="M63.5305 134.397C63.5305 136.181 49.291 136.371 31.7652 137.627C14.2551 138.882 0 136.181 0 134.397C0 132.613 14.3217 129.024 31.7652 131.167C49.291 133.321 63.5305 132.613 63.5305 134.397Z" fill="#E6E6E6"/>
<path d="M103.194 120.115C103.239 120.12 103.283 120.106 103.319 120.077C103.356 120.047 103.382 120.004 103.392 119.954L104.51 114.827C104.516 114.797 104.517 114.766 104.512 114.736C104.507 114.705 104.496 114.677 104.481 114.652C104.465 114.626 104.445 114.605 104.421 114.59C104.398 114.575 104.372 114.566 104.345 114.563L85.2148 112.718C85.1702 112.714 85.1259 112.729 85.0898 112.76C85.0537 112.79 85.0282 112.834 85.0178 112.884L84.0644 117.804C84.0587 117.834 84.0585 117.864 84.0639 117.894C84.0692 117.924 84.0801 117.952 84.0956 117.976C84.1111 118 84.131 118.021 84.1539 118.036C84.1768 118.051 84.2023 118.06 84.2286 118.063L103.194 120.115Z" fill="#019874"/>
<path d="M25.9509 99.2242C26.1918 99.0349 26.3935 98.7873 26.5419 98.499C26.6903 98.2106 26.7818 97.8884 26.8098 97.5551C26.8379 97.2218 26.8018 96.8855 26.7042 96.5699C26.6066 96.2543 26.4498 95.9671 26.245 95.7285L27.0195 75.9015L23.076 76.409L23.3052 95.8027C22.9782 96.2237 22.7972 96.7676 22.7967 97.3314C22.7962 97.8952 22.9761 98.4396 23.3024 98.8614C23.6286 99.2832 24.0785 99.553 24.5667 99.6198C25.0549 99.6865 25.5475 99.5454 25.9511 99.2233L25.9509 99.2242Z" fill="#A0616A"/>
<path d="M33.145 132.787L35.3895 133.239L37.6078 123.527L34.667 122.86L33.145 132.787Z" fill="#A0616A"/>
<path d="M39.3526 136.502L32.2985 135.08L32.7776 131.955L37.1063 132.827C37.8291 132.973 38.4718 133.442 38.8931 134.131C39.3144 134.82 39.4796 135.673 39.3526 136.502L39.3526 136.502Z" fill="#2F2E41"/>
<path d="M26.9845 134.075H29.2634L30.3475 123.996H26.9841L26.9845 134.075Z" fill="#A0616A"/>
<path d="M33.6577 136.502L26.4954 136.503L26.4953 133.329L30.8903 133.329C31.6242 133.329 32.3281 133.663 32.8471 134.258C33.366 134.853 33.6576 135.661 33.6577 136.502Z" fill="#2F2E41"/>
<path d="M36.4922 130.462C36.4567 130.462 36.4212 130.46 36.3859 130.455L33.7036 130.202C33.5815 130.186 33.4636 130.141 33.357 130.07C33.2505 130 33.1575 129.906 33.0837 129.793C33.0099 129.68 32.9569 129.551 32.9279 129.414C32.8989 129.277 32.8945 129.135 32.9149 128.996L35.5777 113.93L33.9048 103.811C33.8911 103.729 33.852 103.655 33.7947 103.603C33.7373 103.551 33.6656 103.525 33.5926 103.529C33.5197 103.533 33.4506 103.568 33.398 103.626C33.3454 103.684 33.3129 103.762 33.3064 103.845L30.8414 129.557C30.8184 129.828 30.7046 130.078 30.5239 130.254C30.3432 130.431 30.1098 130.52 29.873 130.503L27.3459 130.395C27.1245 130.377 26.9165 130.266 26.7611 130.084C26.6058 129.903 26.5139 129.662 26.5028 129.408L26.7046 98.3369L39.8058 96.459L40.7211 112.667L40.7174 112.685L37.3731 129.667C37.325 129.894 37.2121 130.095 37.0524 130.239C36.8927 130.383 36.6955 130.462 36.4922 130.462Z" fill="#2F2E41"/>
<path d="M31.025 63.0542C33.5465 63.0542 35.5905 60.7103 35.5905 57.8189C35.5905 54.9276 33.5465 52.5837 31.025 52.5837C28.5036 52.5837 26.4596 54.9276 26.4596 57.8189C26.4596 60.7103 28.5036 63.0542 31.025 63.0542Z" fill="#A0616A"/>
<path d="M35.3267 100.701C34.6127 100.706 33.9123 100.477 33.3086 100.039C31.0966 98.4543 28.5851 99.0842 27.2847 99.6009C27.1556 99.6527 27.018 99.6704 26.8821 99.6527C26.7463 99.6349 26.6157 99.5822 26.5001 99.4984C26.3858 99.4161 26.2893 99.3052 26.2177 99.1741C26.1461 99.043 26.1013 98.895 26.0867 98.7412L23.7221 74.5218C23.3258 70.4638 25.4575 66.6485 28.7907 65.45C28.916 65.4049 29.0433 65.3623 29.1727 65.3221C30.21 64.9996 31.2963 64.9417 32.3551 65.1525C33.414 65.3632 34.4198 65.8375 35.3016 66.542C36.1999 67.2541 36.9511 68.1834 37.5024 69.2643C38.0538 70.3453 38.3918 71.5517 38.4926 72.7986L40.4836 97.1805C40.4972 97.3384 40.4786 97.4977 40.4294 97.6459C40.3801 97.7941 40.3015 97.9272 40.1998 98.0346C39.5016 98.7747 37.4759 100.701 35.3267 100.701Z" fill="#019874"/>
<path d="M28.1255 79.7155L22.7907 79.0428C22.6389 79.0236 22.4924 78.9672 22.3614 78.8773C22.2303 78.7874 22.1176 78.6662 22.0311 78.5219C21.9446 78.3776 21.8862 78.2136 21.8599 78.041C21.8337 77.8685 21.8401 77.6915 21.8789 77.5221L23.237 71.5867C23.277 71.1418 23.3935 70.7104 23.5797 70.3175C23.766 69.9245 24.0183 69.5778 24.3221 69.2974C24.6259 69.0169 24.9752 68.8083 25.3497 68.6835C25.7243 68.5588 26.1166 68.5204 26.5042 68.5706C26.8918 68.6207 27.2668 68.7585 27.6076 68.9759C27.9485 69.1932 28.2484 69.4859 28.49 69.837C28.7316 70.1881 28.9102 70.5906 29.0153 71.0213C29.1205 71.4519 29.1502 71.9022 29.1027 72.3461L29.3044 78.4583C29.3101 78.6334 29.2829 78.8078 29.2246 78.9697C29.1663 79.1316 29.0783 79.2771 28.9664 79.3965C28.8546 79.5158 28.7217 79.6062 28.5767 79.6613C28.4317 79.7164 28.2781 79.735 28.1262 79.7159L28.1255 79.7155Z" fill="#019874"/>
<path d="M40.4619 98.3752C40.681 98.154 40.8552 97.8804 40.9721 97.5737C41.0891 97.267 41.146 96.9346 41.1388 96.5999C41.1316 96.2652 41.0605 95.9365 40.9305 95.6367C40.8005 95.337 40.6148 95.0736 40.3864 94.865L39.0716 75.0756L35.2073 76.0731L37.4751 95.345C37.1947 95.8081 37.0722 96.3732 37.1309 96.9329C37.1897 97.4927 37.4255 98.0083 37.7937 98.3819C38.1619 98.7556 38.6368 98.9613 39.1285 98.96C39.6202 98.9588 40.0944 98.7507 40.4611 98.3752H40.4619Z" fill="#A0616A"/>
<path d="M33.7261 78.4714C33.6142 78.3522 33.5261 78.2067 33.4678 78.0448C33.4095 77.8829 33.3823 77.7086 33.3881 77.5336L33.5898 71.4215C33.5463 70.9798 33.5791 70.5326 33.6863 70.1055C33.7936 69.6784 33.9731 69.2797 34.2147 68.9322C34.4563 68.5846 34.7552 68.295 35.0944 68.0799C35.4336 67.8649 35.8064 67.7285 36.1915 67.6786C36.5767 67.6288 36.9666 67.6664 37.3391 67.7893C37.7115 67.9122 38.0593 68.1181 38.3623 68.3951C38.6654 68.6722 38.918 69.0149 39.1055 69.4039C39.2931 69.7928 39.412 70.2203 39.4555 70.662L40.8136 76.5974C40.8523 76.7668 40.8588 76.9438 40.8325 77.1163C40.8063 77.2888 40.7479 77.4528 40.6614 77.5971C40.5748 77.7414 40.4622 77.8627 40.3311 77.9526C40.2001 78.0424 40.0536 78.0989 39.9018 78.118L34.567 78.7907C34.4151 78.8099 34.2615 78.7913 34.1165 78.7361C33.9715 78.6809 33.8385 78.5905 33.7268 78.471L33.7261 78.4714Z" fill="#019874"/>
<path d="M30.7535 63.2512C30.6721 63.2512 30.5911 63.2404 30.5119 63.2191L30.4886 63.2127C26.4747 62.5093 25.5875 59.8423 25.3929 58.729C25.1914 57.5763 25.4207 56.4636 25.9394 56.0314C25.6566 55.0082 25.702 54.1 26.0745 53.3324C26.7251 51.9938 28.1342 51.5419 28.3237 51.4857C29.4497 50.5331 30.797 51.1689 31.0422 51.2979C33.2205 50.3739 34.0535 51.1429 34.2037 51.3147C35.1773 51.5153 35.7708 51.9465 35.9679 52.597C36.338 53.8186 35.1677 55.3382 35.1177 55.4023L35.0916 55.4356L33.3481 55.5309C33.1826 55.5399 33.0207 55.5888 32.8727 55.6742C32.7248 55.7597 32.5942 55.8798 32.4894 56.0269C32.3845 56.1739 32.3078 56.3446 32.2642 56.5278C32.2206 56.7111 32.2111 56.9028 32.2363 57.0905C32.2835 57.3327 32.3431 57.5715 32.4147 57.8056C32.7122 58.8727 32.9352 59.7843 32.6478 60.1309C32.5826 60.198 32.5023 60.2426 32.416 60.2598C32.3297 60.2769 32.241 60.2659 32.1599 60.2279C31.8872 60.1443 31.7023 60.1618 31.6101 60.2801C31.4669 60.4632 31.5106 60.927 31.7331 61.5857C31.8029 61.794 31.8217 62.0202 31.7874 62.2399C31.7532 62.4596 31.6671 62.6643 31.5387 62.832C31.4419 62.9628 31.3216 63.068 31.186 63.1404C31.0504 63.2128 30.9027 63.2506 30.7531 63.2512H30.7535Z" fill="#2F2E41"/>
</svg>
