<svg width="12" height="8" viewBox="0 0 12 8" fill="none" xmlns="http://www.w3.org/2000/svg">
<path d="M11.7853 6.3126C11.2396 5.56377 10.4684 4.87091 10.4196 3.94687C10.3748 3.09936 10.9715 2.25791 10.7199 1.44709C10.5264 0.823665 9.88803 0.447494 9.26425 0.248292C8.07 -0.127609 6.79199 -0.0755017 5.62857 0.396528L5.69171 0.349367C4.98163 0.0814854 4.15161 0.35803 3.59295 0.870236C3.03422 1.38243 2.7022 2.0924 2.44458 2.80387C2.1869 3.51534 1.98729 4.25284 1.62932 4.91984C1.27129 5.58685 0.723181 6.19343 0 6.42395C0.242098 6.93539 0.998922 7.11085 1.4428 6.75844C1.55619 6.66091 1.65812 6.54931 1.74639 6.42604C2.04242 6.0448 2.33847 5.66356 2.63454 5.28233C2.93915 5.85609 2.48408 6.648 2.85851 7.17918C3.05158 7.45311 3.4042 7.55713 3.73171 7.63175C6.29141 8.21016 8.94671 8.10586 11.4589 7.32821C11.6608 7.2652 11.8836 7.17841 11.9673 6.98487C12.0641 6.76143 11.9288 6.50951 11.7853 6.3126Z" fill="#2F2E41"/>
</svg>
