<svg width="30" height="30" viewBox="0 0 30 30" fill="none" xmlns="http://www.w3.org/2000/svg">
<g filter="url(#filter0_d_235_233)">
<path d="M24.4142 8.62971H17.3536V1.56904C17.3536 0.702635 16.6509 0 15.7845 0H14.2155C13.3491 0 12.6464 0.702635 12.6464 1.56904V8.62971H5.58577C4.71937 8.62971 4.01674 9.33234 4.01674 10.1987V11.7678C4.01674 12.6342 4.71937 13.3368 5.58577 13.3368H12.6464V20.3975C12.6464 21.2639 13.3491 21.9665 14.2155 21.9665H15.7845C16.6509 21.9665 17.3536 21.2639 17.3536 20.3975V13.3368H24.4142C25.2806 13.3368 25.9833 12.6342 25.9833 11.7678V10.1987C25.9833 9.33234 25.2806 8.62971 24.4142 8.62971Z" fill="black"/>
<path d="M16.8515 8.62971V9.1318H17.3536H24.4142C25.0033 9.1318 25.4812 9.60964 25.4812 10.1987V11.7678C25.4812 12.3569 25.0033 12.8347 24.4142 12.8347H17.3536H16.8515V13.3368V20.3975C16.8515 20.9866 16.3736 21.4644 15.7845 21.4644H14.2155C13.6264 21.4644 13.1485 20.9866 13.1485 20.3975V13.3368V12.8347H12.6464H5.58577C4.99667 12.8347 4.51883 12.3569 4.51883 11.7678V10.1987C4.51883 9.60964 4.99667 9.1318 5.58577 9.1318H12.6464H13.1485V8.62971V1.56904C13.1485 0.979932 13.6264 0.502092 14.2155 0.502092H15.7845C16.3736 0.502092 16.8515 0.979932 16.8515 1.56904V8.62971Z" stroke="black"/>
</g>
<defs>
<filter id="filter0_d_235_233" x="0" y="0" width="30" height="30" filterUnits="userSpaceOnUse" color-interpolation-filters="sRGB">
<feFlood flood-opacity="0" result="BackgroundImageFix"/>
<feColorMatrix in="SourceAlpha" type="matrix" values="0 0 0 0 0 0 0 0 0 0 0 0 0 0 0 0 0 0 127 0" result="hardAlpha"/>
<feOffset dy="4"/>
<feGaussianBlur stdDeviation="2"/>
<feComposite in2="hardAlpha" operator="out"/>
<feColorMatrix type="matrix" values="0 0 0 0 0 0 0 0 0 0 0 0 0 0 0 0 0 0 0.25 0"/>
<feBlend mode="normal" in2="BackgroundImageFix" result="effect1_dropShadow_235_233"/>
<feBlend mode="normal" in="SourceGraphic" in2="effect1_dropShadow_235_233" result="shape"/>
</filter>
</defs>
</svg>
