<svg width="16" height="45" viewBox="0 0 16 45" fill="none" xmlns="http://www.w3.org/2000/svg">
<path d="M10.1931 0L11.8993 0.884014C11.8993 0.884014 13.8057 4.3489 12.7121 7.63694C12.1812 9.23333 13.6763 14.3221 13.6763 14.3221C13.6763 14.3221 15.9927 37.3723 16 44.4863C13.1222 44.9491 10.3884 45.5209 10.2517 44.0914C10.115 42.6618 8.61876 25.7588 8.61876 25.7588C8.61876 25.7588 6.5611 44.5202 4.92083 44.8061C3.28055 45.0921 0 44.6632 0 44.6632C0 44.6632 2.60442 17.1813 4.38138 15.4658L4.65476 14.0362L4.64745 1.20381L6.69473 0.181996L10.1931 0Z" fill="#2F2E41"/>
</svg>
