<svg width="321" height="223" viewBox="0 0 321 223" fill="none" xmlns="http://www.w3.org/2000/svg">
<g clip-path="url(#clip0_40_1967)">
<path d="M63.9571 223C99.2797 223 127.914 220.829 127.914 218.15C127.914 215.471 99.2797 213.3 63.9571 213.3C28.6346 213.3 0 215.471 0 218.15C0 220.829 28.6346 223 63.9571 223Z" fill="#E6E6E6"/>
<path d="M48.8876 49.4797C60.0181 44.7526 73.8813 47.7476 87.4202 49.8263C87.5462 47.309 89.0733 44.2454 87.4736 42.4892C85.5301 40.3556 85.709 38.1138 86.8785 35.8591C89.8691 30.0935 85.5844 23.9585 81.2583 18.8573C80.2832 17.7101 79.0509 16.8088 77.6614 16.2265C76.2719 15.6441 74.7644 15.3973 73.2615 15.5059L65.2476 16.0775C63.2975 16.2166 61.4365 16.947 59.9135 18.171C58.3905 19.3951 57.2783 21.0543 56.7255 22.9268C54.812 25.5254 53.7878 28.1167 54.4326 30.6946C51.5664 32.6504 51.0849 35.0112 52.3728 37.6726C53.465 39.3483 53.4533 40.9794 52.3232 42.5654C50.8389 44.5875 49.7021 46.8421 48.9593 49.2369L48.8876 49.4797Z" fill="#2F2E41"/>
<path d="M313.394 192.78H86.5409C84.5235 192.78 82.5888 191.98 81.1623 190.555C79.7358 189.131 78.9344 187.199 78.9344 185.185C161.168 175.642 241.857 175.642 321 185.185C321 187.199 320.199 189.131 318.772 190.555C317.346 191.98 315.411 192.78 313.394 192.78Z" fill="#2F2E41"/>
<path d="M321 185.632L78.9344 185.185L106.989 138.051L107.123 137.828V33.9499C107.123 32.689 107.372 31.4405 107.855 30.2756C108.338 29.1107 109.046 28.0523 109.939 27.1607C110.832 26.2692 111.892 25.562 113.059 25.0795C114.226 24.597 115.476 24.3488 116.739 24.3489H281.853C283.116 24.3488 284.367 24.597 285.533 25.0795C286.7 25.562 287.76 26.2692 288.653 27.1607C289.546 28.0523 290.254 29.1107 290.737 30.2756C291.22 31.4405 291.469 32.689 291.469 33.9499V138.542L321 185.632Z" fill="#3F3D56"/>
<path d="M116.519 31.0503C115.689 31.0512 114.893 31.381 114.306 31.9673C113.719 32.5536 113.388 33.3485 113.387 34.1777V128.892C113.388 129.721 113.719 130.516 114.306 131.103C114.893 131.689 115.689 132.019 116.519 132.02H283.415C284.245 132.019 285.041 131.689 285.629 131.103C286.216 130.516 286.546 129.721 286.547 128.892V34.1777C286.546 33.3485 286.216 32.5536 285.629 31.9674C285.041 31.3811 284.245 31.0513 283.415 31.0503H116.519Z" fill="white"/>
<path d="M117.219 144.529C116.962 144.529 116.711 144.603 116.495 144.741C116.279 144.88 116.107 145.077 115.999 145.309L107.355 164.073C107.261 164.278 107.22 164.502 107.235 164.726C107.251 164.951 107.322 165.167 107.444 165.357C107.565 165.546 107.732 165.702 107.93 165.809C108.127 165.917 108.349 165.974 108.574 165.974H290.363C290.592 165.974 290.817 165.915 291.017 165.804C291.216 165.693 291.384 165.533 291.505 165.338C291.625 165.144 291.693 164.922 291.704 164.694C291.714 164.466 291.666 164.238 291.563 164.034L282.167 145.27C282.056 145.047 281.885 144.859 281.673 144.728C281.461 144.597 281.216 144.528 280.967 144.529H117.219Z" fill="#2F2E41"/>
<path d="M199.296 29.4867C200.408 29.4867 201.31 28.5866 201.31 27.4763C201.31 26.3659 200.408 25.4658 199.296 25.4658C198.184 25.4658 197.283 26.3659 197.283 27.4763C197.283 28.5866 198.184 29.4867 199.296 29.4867Z" fill="white"/>
<path d="M181.428 169.548C181.133 169.548 180.846 169.646 180.612 169.825C180.377 170.004 180.209 170.255 180.132 170.54L177.963 178.582C177.91 178.78 177.903 178.989 177.943 179.19C177.983 179.392 178.069 179.582 178.194 179.745C178.319 179.909 178.481 180.041 178.665 180.132C178.85 180.223 179.053 180.271 179.259 180.27H220.497C220.711 180.27 220.922 180.219 221.112 180.121C221.302 180.024 221.466 179.882 221.59 179.708C221.715 179.533 221.795 179.332 221.826 179.121C221.856 178.909 221.835 178.694 221.765 178.492L218.977 170.45C218.886 170.187 218.715 169.958 218.487 169.797C218.26 169.635 217.988 169.548 217.709 169.548H181.428Z" fill="#2F2E41"/>
<path d="M291.469 136.264V138.051H106.989L107.128 137.828V136.264H291.469Z" fill="#2F2E41"/>
<path d="M286.323 62.5474C303.621 62.5474 317.644 48.5457 317.644 31.2737C317.644 14.0017 303.621 0 286.323 0C269.025 0 255.002 14.0017 255.002 31.2737C255.002 48.5457 269.025 62.5474 286.323 62.5474Z" fill="#D9D9D9"/>
<path d="M299.299 44.9002H273.348C272.873 44.8997 272.418 44.7113 272.082 44.3763C271.747 44.0412 271.558 43.5869 271.558 43.1131V27.4763C271.558 27.0025 271.747 26.5482 272.083 26.2132C272.418 25.8782 272.873 25.6897 273.348 25.6892H299.299C299.774 25.6897 300.229 25.8782 300.564 26.2132C300.9 26.5482 301.088 27.0025 301.089 27.4763V43.1131C301.088 43.5869 300.9 44.0412 300.564 44.3763C300.229 44.7113 299.774 44.8997 299.299 44.9002ZM273.348 27.4763V43.1131H299.3L299.299 27.4763L273.348 27.4763Z" fill="white"/>
<path d="M294.377 27.4762H278.269V20.3279C278.269 15.1504 281.657 11.3926 286.323 11.3926C290.99 11.3926 294.377 15.1504 294.377 20.3279L294.377 27.4762ZM280.059 25.6891H292.588V20.3279C292.588 16.1192 290.012 13.1797 286.323 13.1797C282.635 13.1797 280.059 16.1192 280.059 20.3279L280.059 25.6891Z" fill="white"/>
<path d="M286.323 36.6349C287.312 36.6349 288.113 35.8348 288.113 34.8479C288.113 33.8609 287.312 33.0608 286.323 33.0608C285.335 33.0608 284.534 33.8609 284.534 34.8479C284.534 35.8348 285.335 36.6349 286.323 36.6349Z" fill="white"/>
<path d="M264.459 99.8934H135.476C134.843 99.8927 134.235 99.6411 133.788 99.194C133.34 98.7469 133.088 98.1407 133.087 97.5084V65.5615C133.088 64.9292 133.34 64.323 133.788 63.8759C134.235 63.4288 134.843 63.1773 135.476 63.1765H264.459C265.092 63.1773 265.699 63.4288 266.147 63.8759C266.595 64.323 266.846 64.9292 266.847 65.5615V97.5084C266.846 98.1407 266.595 98.7469 266.147 99.194C265.699 99.6411 265.092 99.8927 264.459 99.8934ZM135.476 64.1305C135.096 64.1309 134.732 64.2818 134.463 64.5501C134.194 64.8184 134.043 65.1821 134.043 65.5615V97.5084C134.043 97.8878 134.194 98.2516 134.463 98.5198C134.732 98.7881 135.096 98.939 135.476 98.9394H264.459C264.839 98.939 265.203 98.7881 265.472 98.5198C265.74 98.2516 265.891 97.8878 265.892 97.5084V65.5615C265.891 65.1821 265.74 64.8183 265.472 64.5501C265.203 64.2818 264.839 64.1309 264.459 64.1305L135.476 64.1305Z" fill="#E6E6E6"/>
<path d="M155.517 90.0242C160.891 90.0242 165.247 85.6746 165.247 80.3091C165.247 74.9436 160.891 70.594 155.517 70.594C150.144 70.594 145.787 74.9436 145.787 80.3091C145.787 85.6746 150.144 90.0242 155.517 90.0242Z" fill="#E6E6E6"/>
<path d="M177.988 73.8325C177.775 73.8322 177.564 73.8738 177.367 73.955C177.17 74.0362 176.991 74.1555 176.84 74.3059C176.689 74.4563 176.569 74.6349 176.488 74.8315C176.406 75.0281 176.364 75.2388 176.364 75.4517C176.364 75.6645 176.406 75.8753 176.488 76.0719C176.569 76.2685 176.689 76.4471 176.84 76.5975C176.991 76.7479 177.17 76.8671 177.367 76.9484C177.564 77.0296 177.775 77.0712 177.988 77.0709H254.436C254.866 77.0709 255.279 76.9003 255.583 76.5966C255.887 76.293 256.058 75.8811 256.058 75.4517C256.058 75.0223 255.887 74.6104 255.583 74.3068C255.279 74.0031 254.866 73.8325 254.436 73.8325H177.988Z" fill="#E6E6E6"/>
<path d="M177.988 83.5476C177.558 83.5476 177.146 83.7182 176.842 84.0219C176.537 84.3255 176.367 84.7374 176.367 85.1668C176.367 85.5962 176.537 86.0081 176.842 86.3117C177.146 86.6154 177.558 86.786 177.988 86.786H210.884C211.314 86.786 211.727 86.6154 212.031 86.3117C212.335 86.0081 212.506 85.5962 212.506 85.1668C212.506 84.7374 212.335 84.3255 212.031 84.0219C211.727 83.7182 211.314 83.5476 210.884 83.5476H177.988Z" fill="#E6E6E6"/>
<path d="M106.672 84.2026L82.8281 96.8598L82.5263 86.3122C90.3086 85.015 97.7127 82.7564 104.559 79.0795L107.053 72.9278C107.324 72.2575 107.766 71.6692 108.334 71.2208C108.902 70.7724 109.578 70.4792 110.293 70.3701C111.009 70.2609 111.741 70.3395 112.418 70.5982C113.094 70.8568 113.691 71.2867 114.151 71.8455C114.824 72.663 115.16 73.7053 115.092 74.7611C115.023 75.817 114.556 76.8074 113.783 77.5318L106.672 84.2026Z" fill="#FFB8B8"/>
<path d="M48.4124 157.28C48.2384 156.644 48.2015 155.977 48.304 155.325C48.4065 154.672 48.6462 154.049 49.0071 153.496L54.2449 145.47C55.4837 143.572 57.3846 142.2 59.5788 141.622C61.773 141.044 64.1039 141.301 66.1194 142.342C63.9182 146.083 64.225 149.365 66.8797 152.217C62.7587 154.226 58.9499 156.819 55.5714 159.915C54.9546 160.335 54.2463 160.602 53.5054 160.693C52.7645 160.784 52.0126 160.697 51.3122 160.439C50.6118 160.181 49.9832 159.76 49.4788 159.211C48.9744 158.661 48.6087 158 48.4124 157.28Z" fill="#2F2E41"/>
<path d="M107.758 146.786C106.965 148.105 105.846 149.199 104.508 149.962C103.171 150.724 101.659 151.131 100.119 151.143L65.3227 151.406L63.8137 142.667L79.2063 138.146L66.2282 128.201L80.4135 111.626L106.179 135.604C107.684 137.006 108.663 138.881 108.95 140.916C109.238 142.952 108.817 145.024 107.758 146.786Z" fill="#2F2E41"/>
<path d="M59.8901 206.555H51.741C44.4244 156.478 36.9767 106.261 58.9846 87.5176L84.9408 91.7366L81.6208 113.736L67.1336 130.311L59.8901 206.555Z" fill="#2F2E41"/>
<path d="M67.0534 217.899C66.4155 218.073 65.748 218.11 65.0947 218.008C64.4415 217.905 63.8173 217.666 63.2633 217.306L54.4151 216.118C52.5138 214.881 51.1404 212.983 50.5614 210.792C49.9824 208.602 50.2391 206.274 51.2817 204.262C55.0287 206.459 58.3157 206.153 61.1721 203.502C63.1904 207.571 66.5158 207.323 69.6916 210.751C70.1121 211.367 70.3792 212.074 70.4705 212.814C70.5619 213.553 70.4749 214.304 70.2167 215.004C69.9586 215.703 69.5369 216.331 68.9867 216.834C68.4364 217.338 67.7736 217.703 67.0534 217.899Z" fill="#2F2E41"/>
<path d="M79.2063 54.0664L64.1155 50.4501C66.6218 45.3275 66.8282 39.6276 65.6245 33.5738L75.8863 33.2725C76.2078 40.8005 77.1806 47.8336 79.2063 54.0664Z" fill="#FFB8B8"/>
<path d="M83.3537 100.81C72.3682 108.285 64.6061 101.066 58.6828 89.9283C59.5059 83.113 58.1731 74.9571 55.7048 66.0951C54.6071 62.1864 55.0169 58.0087 56.8534 54.3869C58.6899 50.7652 61.8196 47.9625 65.6245 46.5322L78.6026 51.9567C89.6225 60.9257 91.7916 70.6409 87.6571 80.8875L83.3537 100.81Z" fill="#47A7ED"/>
<path d="M51.741 61.6004L39.6683 67.929L61.0973 80.5862L64.079 87.93C64.278 88.4202 64.375 88.9457 64.3639 89.4745C64.3529 90.0032 64.2341 90.5243 64.0149 91.0057C63.7956 91.4872 63.4804 91.919 63.0886 92.2749C62.6967 92.6307 62.2363 92.9032 61.7356 93.0756C61.1663 93.2716 60.5594 93.3334 59.9622 93.256C59.3651 93.1787 58.794 92.9644 58.2937 92.6299C57.7933 92.2954 57.3773 91.8498 57.0782 91.328C56.7792 90.8062 56.6051 90.2223 56.5698 89.6221L56.2683 84.5039L29.0323 75.5296C28.1147 75.2272 27.278 74.7203 26.5856 74.0473C25.8932 73.3742 25.3632 72.5526 25.0359 71.6448C24.5588 70.3215 24.5345 68.8776 24.9669 67.5391C25.3992 66.2005 26.2638 65.0429 27.4253 64.2472L49.3265 49.2446L51.741 61.6004Z" fill="#FFB8B8"/>
<path d="M63.8137 62.8058C58.7786 60.6026 54.2001 62.996 48.421 64.9154L47.5156 48.9432C53.254 45.8893 58.7251 45.0659 63.8137 47.4364L63.8137 62.8058Z" fill="#47A7ED"/>
<path d="M69.8367 41.1839C75.1579 41.1839 79.4716 36.8767 79.4716 31.5635C79.4716 26.2503 75.1579 21.9431 69.8367 21.9431C64.5155 21.9431 60.2018 26.2503 60.2018 31.5635C60.2018 36.8767 64.5155 41.1839 69.8367 41.1839Z" fill="#FFB8B8"/>
<path d="M81.3632 30.3497C71.8238 31.2826 64.5549 29.7248 59.9092 25.2893V21.7173H80.5536L81.3632 30.3497Z" fill="#2F2E41"/>
</g>
<defs>
<clipPath id="clip0_40_1967">
<rect width="321" height="223" fill="white"/>
</clipPath>
</defs>
</svg>
