<svg width="7" height="4" viewBox="0 0 7 4" fill="none" xmlns="http://www.w3.org/2000/svg">
<path d="M6.71585 2.21683C6.5974 1.63925 6.21267 1.16071 5.76945 0.810239C5.0388 0.232506 4.14279 -0.0514937 3.23742 0.00768594C2.33205 0.0668656 1.47466 0.465476 0.81452 1.13412C0.445662 1.48431 0.179736 1.94244 0.0492661 2.45251C-0.0129693 2.70744 -0.0162918 2.97486 0.0395902 3.23149C0.0954722 3.48812 0.208865 3.72618 0.369895 3.92494L0.43063 3.96582C0.375569 3.71477 0.557005 3.4639 0.773746 3.35314C0.999164 3.26421 1.23447 3.2075 1.47364 3.18446C1.83548 3.11095 2.17844 2.95481 2.47932 2.72659C2.78021 2.49837 3.03201 2.20339 3.21773 1.86158C3.35533 2.28227 3.57514 2.66642 3.86238 2.98819C4.14962 3.30995 4.49763 3.56187 4.88301 3.72701C5.28475 3.89589 6.38822 4.12812 6.7707 3.9137C7.25862 3.64023 6.83432 2.79442 6.71585 2.21683Z" fill="#2F2E41"/>
</svg>
