<svg width="24" height="26" viewBox="0 0 24 26" fill="none" xmlns="http://www.w3.org/2000/svg">
<path d="M6.75565 24.6928C5.69027 25.385 3.79215 26.2523 1.85248 25.361L0.598631 24.7848L3.11126 21.7335C1.10621 19.3385 -0.0030477 16.22 6.28941e-06 12.9867C0.00306028 9.75342 1.1182 6.63741 3.12777 4.24687C5.13734 1.85634 7.8971 0.362865 10.8684 0.0579604C13.8396 -0.246944 16.8092 0.658606 19.1973 2.59786C21.5855 4.53711 23.2208 7.37087 23.7842 10.546C24.3476 13.7212 23.7986 17.0098 22.2443 19.7701C20.69 22.5303 18.242 24.564 15.3782 25.4742C12.5143 26.3844 9.44011 26.1058 6.75565 24.6928Z" fill="white"/>
</svg>
