<svg width="11" height="24" viewBox="0 0 11 24" fill="none" xmlns="http://www.w3.org/2000/svg">
<path opacity="0.1" d="M9.21857 12C9.21841 9.00109 8.27205 6.11091 6.56585 3.89865C4.85965 1.68639 2.51727 0.312371 0 0.0471863C0.29456 0.0165665 0.592519 0 0.893771 0C3.57467 0.00191893 6.14521 1.26705 8.04032 3.51728C9.93544 5.7675 11 8.81865 11 12C11 15.1813 9.93544 18.2325 8.04032 20.4827C6.14521 22.733 3.57467 23.9981 0.893771 24C0.592973 24 0.295528 23.9832 0.00141472 23.9527C2.51841 23.6871 4.86042 22.3129 6.56633 20.1007C8.27223 17.8885 9.21841 14.9986 9.21857 12Z" fill="black"/>
</svg>
