<svg width="97" height="82" viewBox="0 0 97 82" fill="none" xmlns="http://www.w3.org/2000/svg">
<path d="M26.5847 78.8203L29.2798 78.8201H29.2799C29.7354 78.8202 30.1722 79.1002 30.4943 79.5987C30.8164 80.0971 30.9974 80.7732 30.9974 81.4781V81.5645L26.5848 81.5648L26.5847 78.8203Z" fill="#2F2E41"/>
<path d="M17.2082 78.8203L19.9033 78.8201H19.9034C20.3589 78.8202 20.7957 79.1002 21.1178 79.5987C21.4399 80.0971 21.6209 80.7732 21.6209 81.4781V81.5645L17.2083 81.5648L17.2082 78.8203Z" fill="#2F2E41"/>
<path d="M42.6408 81.745H0.111625C0.0820203 81.745 0.0536279 81.7268 0.0326941 81.6944C0.0117604 81.662 0 81.618 0 81.5722C0 81.5264 0.0117604 81.4825 0.0326941 81.4501C0.0536279 81.4177 0.0820203 81.3995 0.111625 81.3995H42.6408C42.6704 81.3995 42.6988 81.4177 42.7197 81.4501C42.7406 81.4825 42.7524 81.5264 42.7524 81.5722C42.7524 81.618 42.7406 81.662 42.7197 81.6944C42.6988 81.7268 42.6704 81.745 42.6408 81.745Z" fill="#CBCBCB"/>
</svg>
