<svg width="5" height="1" viewBox="0 0 5 1" fill="none" xmlns="http://www.w3.org/2000/svg">
<path d="M4.63911 0.0934128C4.49306 0.0329889 4.31834 0.000352472 4.13902 0H0.860973C0.632627 0 0.413633 0.0526799 0.252168 0.146448C0.0907038 0.240216 0 0.367391 0 0.499999C0 0.632607 0.0907038 0.759785 0.252168 0.853553C0.413633 0.947321 0.632627 0.999998 0.860973 0.999998H4.13902C4.19753 1.00009 4.2559 0.996688 4.3132 0.989833C4.37027 0.982677 4.42607 0.97247 4.4799 0.959339C4.62004 0.924276 4.74161 0.868204 4.83215 0.796871C4.92268 0.725537 4.97893 0.641508 4.99514 0.553391C5.01134 0.465275 4.98691 0.37624 4.92434 0.295413C4.86178 0.214586 4.76335 0.144869 4.63911 0.0934128Z" fill="#3F3D56"/>
</svg>
