<svg width="31" height="30" viewBox="0 0 31 30" fill="none" xmlns="http://www.w3.org/2000/svg">
<path d="M15.5 0C12.488 0.00553327 9.5427 0.857853 7.0228 2.45314C4.5029 4.04843 2.51718 6.31784 1.3075 8.98494C0.0978241 11.652 -0.283597 14.6017 0.209698 17.4747C0.702993 20.3477 2.04971 23.0199 4.08582 25.166C5.54004 26.6902 7.30499 27.9065 9.26947 28.7385C11.2339 29.5705 13.3553 30 15.5 30C17.6447 30 19.7661 29.5705 21.7305 28.7385C23.695 27.9065 25.46 26.6902 26.9142 25.166C28.9503 23.0199 30.297 20.3477 30.7903 17.4747C31.2836 14.6017 30.9022 11.652 29.6925 8.98494C28.4828 6.31784 26.4971 4.04843 23.9772 2.45314C21.4573 0.857853 18.512 0.00553327 15.5 0ZM15.5 27.0279C12.283 27.0232 9.19334 25.8121 6.88113 23.6494C7.58313 21.997 8.77733 20.5837 10.312 19.5891C11.8466 18.5944 13.6525 18.0634 15.5 18.0634C17.3475 18.0634 19.1534 18.5944 20.688 19.5891C22.2227 20.5837 23.4169 21.997 24.1189 23.6494C21.8067 25.8121 18.717 27.0232 15.5 27.0279ZM12.3941 12.0124C12.3941 11.4185 12.5763 10.8378 12.9175 10.344C13.2588 9.85012 13.7439 9.46521 14.3114 9.23791C14.879 9.01061 15.5034 8.95114 16.1059 9.06702C16.7084 9.18289 17.2618 9.46891 17.6962 9.8889C18.1306 10.3089 18.4264 10.844 18.5462 11.4265C18.6661 12.0091 18.6046 12.6129 18.3695 13.1617C18.1344 13.7104 17.7363 14.1794 17.2255 14.5094C16.7148 14.8394 16.1143 15.0155 15.5 15.0155C14.6763 15.0155 13.8863 14.6991 13.3038 14.1359C12.7213 13.5727 12.3941 12.8089 12.3941 12.0124ZM26.2309 21.0217C24.8434 18.727 22.7079 16.9421 20.1588 15.9465C20.9496 15.0796 21.4648 14.0105 21.6426 12.8675C21.8205 11.7244 21.6535 10.5561 21.1617 9.50257C20.6698 8.44905 19.874 7.55515 18.8698 6.92811C17.8655 6.30107 16.6954 5.96754 15.5 5.96754C14.3046 5.96754 13.1345 6.30107 12.1302 6.92811C11.126 7.55515 10.3302 8.44905 9.83833 9.50257C9.34648 10.5561 9.17947 11.7244 9.35735 12.8675C9.53523 14.0105 10.0504 15.0796 10.8412 15.9465C8.29214 16.9421 6.15663 18.727 4.76912 21.0217C3.66333 19.2005 3.07907 17.1274 3.0764 15.0155C3.0764 11.8296 4.38531 8.77422 6.71519 6.52146C9.04507 4.26869 12.2051 3.0031 15.5 3.0031C18.7949 3.0031 21.9549 4.26869 24.2848 6.52146C26.6147 8.77422 27.9236 11.8296 27.9236 15.0155C27.9209 17.1274 27.3367 19.2005 26.2309 21.0217Z" fill="#9F4CBC" fill-opacity="0.305882"/>
</svg>
