<svg width="11" height="8" viewBox="0 0 11 8" fill="none" xmlns="http://www.w3.org/2000/svg">
<path d="M8.33424 1.13673C8.31845 1.21245 8.30815 1.28941 8.30345 1.36689L2.77587 4.84467L1.43231 4.00113L0 6.04613L2.24544 7.79155C2.42684 7.93256 2.64528 8.00558 2.86798 7.99967C3.09068 7.99375 3.3056 7.90921 3.48049 7.75873L9.18038 2.85461C9.43762 2.95846 9.71774 2.97443 9.98351 2.90041C10.2493 2.82639 10.4881 2.66588 10.6681 2.44023C10.8482 2.21458 10.961 1.93449 10.9916 1.63721C11.0221 1.33992 10.969 1.03954 10.8392 0.776005C10.7094 0.512475 10.5091 0.298288 10.265 0.161933C10.0208 0.025578 9.7444 -0.0264818 9.47247 0.0126771C9.20053 0.051836 8.94598 0.18036 8.74265 0.381151C8.53933 0.581941 8.39688 0.845486 8.33424 1.13673Z" fill="#FFB7B7"/>
</svg>
