<svg width="18" height="18" viewBox="0 0 18 18" fill="none" xmlns="http://www.w3.org/2000/svg">
<g clip-path="url(#clip0_103_3505)">
<path d="M3.94949 7.32375C4.30041 6.26209 4.97764 5.33836 5.88458 4.68435C6.79152 4.03034 7.88184 3.67945 8.99999 3.68175C10.2675 3.68175 11.4135 4.13175 12.3135 4.86825L14.9325 2.25C13.3365 0.85875 11.2912 0 8.99999 0C5.45249 0 2.39849 2.0235 0.929993 4.9875L3.94949 7.32375Z" fill="white"/>
<path d="M12.03 13.5098C11.2125 14.0371 10.1745 14.3183 9.00002 14.3183C7.88632 14.3206 6.80012 13.9725 5.89519 13.3233C4.99027 12.6741 4.31247 11.7568 3.95776 10.701L0.927765 13.0013C1.6712 14.506 2.82172 15.7721 4.24863 16.6557C5.67555 17.5393 7.32167 18.0051 9.00002 18C11.1998 18 13.3013 17.2178 14.8755 15.75L12.0308 13.5098H12.03Z" fill="white"/>
<path d="M14.8755 15.75C16.5217 14.214 17.5905 11.928 17.5905 9.00003C17.5905 8.46753 17.5087 7.89528 17.3865 7.36353H9V10.8413H13.827C13.5893 12.0105 12.9495 12.9158 12.0308 13.5098L14.8755 15.75Z" fill="white"/>
<path d="M3.95775 10.701C3.77426 10.1527 3.68105 9.57825 3.68175 9.00005C3.68175 8.41355 3.7755 7.8503 3.9495 7.3238L0.929996 4.98755C0.312279 6.23456 -0.00615151 7.60844 -4.21183e-06 9.00005C-4.21183e-06 10.44 0.333746 11.7975 0.927746 13.0013L3.95775 10.701Z" fill="white"/>
</g>
<defs>
<clipPath id="clip0_103_3505">
<rect width="18" height="18" fill="white"/>
</clipPath>
</defs>
</svg>
