<svg width="42" height="41" viewBox="0 0 42 41" fill="none" xmlns="http://www.w3.org/2000/svg">
<path d="M35.4375 20.0729H35.1925C34.1862 15.6825 30.17 12.3854 25.375 12.3854H22.3125V11.2921C23.835 10.7625 24.9375 9.35313 24.9375 7.6875C24.9375 5.56917 23.17 3.84375 21 3.84375C18.83 3.84375 17.0625 5.56917 17.0625 7.6875C17.0625 9.35313 18.165 10.7625 19.6875 11.2921V12.3854H16.625C11.83 12.3854 7.81374 15.6825 6.80749 20.0729H6.56249C5.11874 20.0729 3.93749 21.226 3.93749 22.6354V25.1979C3.93749 26.6073 5.11874 27.7604 6.56249 27.7604H7.04374C8.07624 30.9038 10.6837 33.3467 13.9562 34.235C13.7112 34.739 13.5625 35.2856 13.5625 35.875C13.5625 36.584 14.1487 37.1563 14.875 37.1563H27.125C27.8512 37.1563 28.4375 36.584 28.4375 35.875C28.4375 35.2856 28.2887 34.7304 28.0437 34.235C31.3162 33.3552 33.9237 30.9038 34.9562 27.7604H35.4375C36.8812 27.7604 38.0625 26.6073 38.0625 25.1979V22.6354C38.0625 21.226 36.8812 20.0729 35.4375 20.0729ZM21 6.40625C21.7262 6.40625 22.3125 6.97854 22.3125 7.6875C22.3125 8.39646 21.7262 8.96875 21 8.96875C20.2737 8.96875 19.6875 8.39646 19.6875 7.6875C19.6875 6.97854 20.2737 6.40625 21 6.40625ZM25.375 32.0313H16.625C12.5212 32.0313 9.18749 28.7769 9.18749 24.7708V22.2083C9.18749 18.2023 12.5212 14.9479 16.625 14.9479H25.375C29.4787 14.9479 32.8125 18.2023 32.8125 22.2083V24.7708C32.8125 28.7769 29.4787 32.0313 25.375 32.0313Z" fill="#BC83E9"/>
<path d="M16.1875 18.3646C14.7437 18.3646 13.5625 19.5177 13.5625 20.9271V23.4896C13.5625 24.899 14.7437 26.0521 16.1875 26.0521C17.6312 26.0521 18.8125 24.899 18.8125 23.4896V20.9271C18.8125 19.5177 17.6312 18.3646 16.1875 18.3646Z" fill="#BC83E9"/>
<path d="M25.8125 18.3646C24.3687 18.3646 23.1875 19.5177 23.1875 20.9271V23.4896C23.1875 24.899 24.3687 26.0521 25.8125 26.0521C27.2562 26.0521 28.4375 24.899 28.4375 23.4896V20.9271C28.4375 19.5177 27.2562 18.3646 25.8125 18.3646Z" fill="#BC83E9"/>
<path d="M11.8387 6.33792L14.4637 7.19209C14.6037 7.23479 14.7437 7.26042 14.875 7.26042C15.4262 7.26042 15.9337 6.91875 16.1175 6.38063C16.345 5.70584 15.9775 4.97979 15.2862 4.75771L12.6612 3.90354C11.9787 3.68146 11.235 4.04021 10.9987 4.715C10.7625 5.38979 11.1387 6.11584 11.83 6.33792H11.8387Z" fill="#BC83E9"/>
<path d="M12.25 11.5313C12.39 11.5313 12.53 11.5142 12.6612 11.4629L15.2862 10.6088C15.9775 10.3867 16.345 9.66063 16.1175 8.98584C15.89 8.31104 15.1462 7.95229 14.455 8.17438L11.83 9.02854C11.1387 9.25063 10.7712 9.97667 10.9987 10.6515C11.1825 11.1896 11.69 11.5313 12.2412 11.5313H12.25Z" fill="#BC83E9"/>
<path d="M27.125 7.26042C27.265 7.26042 27.405 7.24334 27.5362 7.19209L30.1612 6.33792C30.8525 6.11584 31.22 5.38979 30.9925 4.715C30.765 4.04021 30.0212 3.68146 29.33 3.90354L26.705 4.75771C26.0137 4.97979 25.6462 5.70584 25.8737 6.38063C26.0575 6.91875 26.565 7.26042 27.1162 7.26042H27.125Z" fill="#BC83E9"/>
<path d="M26.7137 10.6088L29.3387 11.4629C29.4787 11.5056 29.6187 11.5313 29.75 11.5313C30.3012 11.5313 30.8087 11.1896 30.9925 10.6515C31.22 9.97667 30.8525 9.25063 30.1612 9.02854L27.5362 8.17438C26.8537 7.95229 26.1012 8.31104 25.8737 8.98584C25.6462 9.66063 26.0137 10.3867 26.705 10.6088H26.7137Z" fill="#BC83E9"/>
</svg>
