<svg width="25" height="26" viewBox="0 0 25 26" fill="none" xmlns="http://www.w3.org/2000/svg">
<path d="M7.1042 24.7158C6.0496 25.3594 4.04067 26.2489 1.99251 25.3457L0.523599 24.698L3.15798 21.6281C1.51887 19.7115 0.461981 17.3335 0.120406 14.7936C-0.221169 12.2538 0.167849 9.66562 1.23846 7.35515C2.30907 5.04468 4.01341 3.11519 6.13682 1.80969C8.26023 0.504184 10.7078 -0.118953 13.1712 0.0187507C15.6346 0.156454 18.0038 1.04884 19.9803 2.58353C21.9568 4.11821 23.4522 6.22656 24.2783 8.64306C25.1044 11.0596 25.2242 13.6761 24.6226 16.1633C24.021 18.6504 22.7249 20.8969 20.8976 22.6198C19.0623 24.3605 16.7679 25.4904 14.3097 25.864C11.8515 26.2375 9.34193 25.8376 7.1042 24.7158ZM21.5547 4.45742C20.4764 3.22083 19.1743 2.21717 17.7228 1.50378C16.2713 0.79038 14.6989 0.381222 13.0952 0.299669C11.4916 0.218116 9.88824 0.465766 8.37669 1.02847C6.86515 1.59118 5.47504 2.45793 4.28577 3.5792C3.0965 4.70048 2.13136 6.05432 1.44548 7.5634C0.759591 9.07249 0.366403 10.7073 0.288358 12.3743C0.210312 14.0414 0.448942 15.7081 0.990622 17.2793C1.5323 18.8505 2.36641 20.2954 3.44532 21.5314L3.52869 21.627L0.98583 24.5903L2.10026 25.0817C4.07835 25.954 6.03577 25.0479 7.02652 24.4302L7.09057 24.3902L7.15776 24.4242C9.71172 25.7142 12.618 26.0397 15.3777 25.3448C18.1374 24.65 20.5783 22.9781 22.2813 20.6161C23.9844 18.2542 24.8433 15.3496 24.7108 12.4011C24.5782 9.4525 23.4623 6.64389 21.5547 4.45742Z" fill="#6C63FF"/>
</svg>
