<svg width="16" height="4" viewBox="0 0 16 4" fill="none" xmlns="http://www.w3.org/2000/svg">
<path fill-rule="evenodd" clip-rule="evenodd" d="M14.1538 -9.53674e-07C14.6435 -9.53674e-07 15.1131 0.194504 15.4593 0.540725C15.8055 0.886946 16 1.35652 16 1.84615C16 2.33578 15.8055 2.80536 15.4593 3.15158C15.1131 3.4978 14.6435 3.69231 14.1538 3.69231C13.6642 3.69231 13.1946 3.4978 12.8484 3.15158C12.5022 2.80536 12.3077 2.33578 12.3077 1.84615C12.3077 1.35652 12.5022 0.886946 12.8484 0.540725C13.1946 0.194504 13.6642 -9.53674e-07 14.1538 -9.53674e-07ZM8 -9.53674e-07C8.48963 -9.53674e-07 8.95921 0.194504 9.30543 0.540725C9.65165 0.886946 9.84615 1.35652 9.84615 1.84615C9.84615 2.33578 9.65165 2.80536 9.30543 3.15158C8.95921 3.4978 8.48963 3.69231 8 3.69231C7.51037 3.69231 7.04079 3.4978 6.69457 3.15158C6.34835 2.80536 6.15385 2.33578 6.15385 1.84615C6.15385 1.35652 6.34835 0.886946 6.69457 0.540725C7.04079 0.194504 7.51037 -9.53674e-07 8 -9.53674e-07ZM1.84615 -9.53674e-07C2.33578 -9.53674e-07 2.80536 0.194504 3.15158 0.540725C3.4978 0.886946 3.69231 1.35652 3.69231 1.84615C3.69231 2.33578 3.4978 2.80536 3.15158 3.15158C2.80536 3.4978 2.33578 3.69231 1.84615 3.69231C1.35652 3.69231 0.886948 3.4978 0.540727 3.15158C0.194506 2.80536 0 2.33578 0 1.84615C0 1.35652 0.194506 0.886946 0.540727 0.540725C0.886948 0.194504 1.35652 -9.53674e-07 1.84615 -9.53674e-07Z" fill="black"/>
</svg>
