<svg width="4" height="5" viewBox="0 0 4 5" fill="none" xmlns="http://www.w3.org/2000/svg">
<path d="M3.39606 4.9989L0.53234 4.82286C0.450859 4.81785 0.371443 4.7958 0.299503 4.75821C0.227563 4.72062 0.164785 4.66837 0.115451 4.60503C0.0661174 4.54169 0.031386 4.46874 0.0136179 4.39115C-0.00415024 4.31356 -0.00453556 4.23315 0.012489 4.1554L0.609191 1.43115C0.637799 1.02532 0.830537 0.647097 1.14513 0.379437C1.45973 0.111776 1.8705 -0.0234751 2.28736 0.00334592C2.70422 0.030167 3.09315 0.21687 3.36884 0.522509C3.64452 0.828148 3.78447 1.22778 3.75799 1.63374L3.998 4.40041C4.00484 4.47962 3.99408 4.55935 3.96643 4.63414C3.93878 4.70894 3.8949 4.77706 3.83778 4.83386C3.78065 4.89066 3.71163 4.9348 3.63541 4.96328C3.55918 4.99176 3.47754 5.00391 3.39606 4.9989Z" fill="#6C63FF"/>
</svg>
