<svg width="76" height="76" viewBox="0 0 76 76" fill="none" xmlns="http://www.w3.org/2000/svg">
<path d="M38 0C17.0081 0 0 17.0081 0 38C0 58.9919 17.0081 76 38 76C58.9919 76 76 58.9919 76 38C76 17.0081 58.9919 0 38 0ZM38 14.7097C45.4468 14.7097 51.4838 20.7468 51.4838 28.1935C51.4838 35.6403 45.4468 41.6774 38 41.6774C30.5532 41.6774 24.5161 35.6403 24.5161 28.1935C24.5161 20.7468 30.5532 14.7097 38 14.7097ZM38 67.4193C29.0056 67.4193 20.946 63.3435 15.5524 56.9693C18.4331 51.5451 24.0718 47.8064 30.6451 47.8064C31.0129 47.8064 31.3806 47.8677 31.7331 47.975C33.725 48.6185 35.8089 49.0322 38 49.0322C40.1911 49.0322 42.2903 48.6185 44.2669 47.975C44.6193 47.8677 44.9871 47.8064 45.3548 47.8064C51.9282 47.8064 57.5669 51.5451 60.4476 56.9693C55.054 63.3435 46.9943 67.4193 38 67.4193Z" fill="black"/>
</svg>
