<svg width="14" height="15" viewBox="0 0 14 15" fill="none" xmlns="http://www.w3.org/2000/svg">
<path d="M13.1231 3.86595C13.0982 3.81676 13.0725 3.76841 13.0461 3.72089C13.0453 3.71922 13.0445 3.71839 13.0437 3.71672C12.4315 2.59388 11.5573 1.6609 10.507 1.00933C9.45662 0.357765 8.26619 0.0100157 7.05251 0.000213135C5.83884 -0.00958939 4.64365 0.318893 3.58424 0.953418C2.52482 1.58794 1.6376 2.50671 1.00966 3.61953C0.381716 4.73235 0.0346286 6.00099 0.00245962 7.30093C-0.0297094 8.60087 0.254144 9.88743 0.826168 11.0343C1.39819 12.1813 2.23872 13.1491 3.26526 13.8429C4.2918 14.5367 5.46907 14.9325 6.68152 14.9917C6.75542 14.9958 6.83011 14.9983 6.90481 14.9983C6.93596 15 6.96627 15 6.99743 15C8.24827 15.0019 9.47642 14.6422 10.5524 13.9588C11.7211 13.2177 12.6651 12.1307 13.2709 10.8285C13.2717 10.8268 13.2725 10.826 13.2733 10.8243C13.2966 10.7743 13.3192 10.7234 13.3418 10.6718C13.8097 9.59949 14.0339 8.42369 13.9959 7.2407C13.9579 6.05771 13.6588 4.9012 13.1231 3.86595ZM13.19 10.6259C13.1674 10.6776 13.1441 10.7284 13.12 10.7785C12.5412 12.0112 11.6518 13.0457 10.5524 13.7645C9.48196 14.465 8.25169 14.8348 6.99743 14.8333C6.94059 14.8333 6.88459 14.8324 6.82779 14.8308C6.80367 14.8308 6.77954 14.8299 6.75542 14.8283C5.56744 14.7838 4.41074 14.4087 3.39913 13.7399C2.38752 13.0711 1.55586 12.1316 0.985976 11.0139C0.41609 9.8962 0.127612 8.63878 0.148939 7.36539C0.170266 6.09199 0.500661 4.84648 1.10761 3.7514C1.71455 2.65633 2.57714 1.74943 3.61049 1.11994C4.64385 0.490446 5.81237 0.160052 7.00107 0.161264C8.18977 0.162475 9.35769 0.49525 10.3899 1.12685C11.4222 1.75844 12.2831 2.6671 12.8881 3.76341C12.8889 3.76507 12.8897 3.76591 12.8905 3.76758C12.9177 3.81509 12.9441 3.86344 12.9691 3.91179C13.503 4.93091 13.8017 6.07212 13.8401 7.24011C13.8786 8.40811 13.6557 9.56901 13.19 10.6259Z" fill="#3F3D56"/>
</svg>
