<svg width="21" height="19" viewBox="0 0 21 19" fill="none" xmlns="http://www.w3.org/2000/svg">
<path d="M10.0296 16.3507C10.9784 16.3507 11.845 16.2499 12.6353 16.0757L10.8731 14.3562C10.5993 14.3767 10.3215 14.3934 10.0296 14.3934C4.66261 14.3934 2.58342 10.6294 2.07993 9.5C2.458 8.67675 2.96862 7.91782 3.59243 7.25198L2.19025 5.88379C0.647663 7.51525 0.0629221 9.15844 0.0518892 9.19074C-0.0172964 9.39172 -0.0172964 9.60926 0.0518892 9.81024C0.0729519 9.87483 2.3738 16.3507 10.0296 16.3507ZM10.0296 2.64927C8.18711 2.64927 6.6736 3.03683 5.41184 3.60935L1.71183 0L0.293609 1.38385L18.3473 19L19.7656 17.6162L16.4367 14.3679C19.0585 12.4585 19.9943 9.85134 20.0083 9.81024C20.0775 9.60926 20.0775 9.39172 20.0083 9.19074C19.9862 9.12517 17.6854 2.64927 10.0296 2.64927ZM15.0164 12.9821L12.7296 10.7507C12.9202 10.3691 13.0385 9.94921 13.0385 9.5C13.0385 7.89399 11.6755 6.56397 10.0296 6.56397C9.56922 6.56397 9.13894 6.67946 8.74878 6.86638L6.93538 5.09694C7.93086 4.76362 8.97717 4.59782 10.0296 4.60662C15.3966 4.60662 17.4758 8.37061 17.9793 9.5C17.6764 10.1772 16.8098 11.7921 15.0164 12.9821Z" fill="#2F2E41"/>
</svg>
