<svg width="14" height="14" viewBox="0 0 14 14" fill="none" xmlns="http://www.w3.org/2000/svg">
<path d="M13.457 4.29682C12.7864 2.69492 11.5442 1.39949 9.97191 0.662198C8.39958 -0.075094 6.60932 -0.201606 4.94893 0.307242C3.28854 0.816089 1.87658 1.92396 0.987339 3.41563C0.0981027 4.9073 -0.204913 6.67626 0.137164 8.37885C0.479241 10.0814 1.44198 11.5961 2.83835 12.6285C4.23473 13.661 5.96503 14.1375 7.69311 13.9656C9.42118 13.7936 11.0237 12.9855 12.1892 11.6981C13.3547 10.4107 14.0001 8.73606 14 6.99945C13.9997 6.07152 13.8151 5.15288 13.457 4.29682ZM13.4082 9.38298C12.8127 10.9836 11.6397 12.3035 10.1199 13.0826C8.60019 13.8618 6.84384 14.0439 5.19657 13.5932C3.54929 13.1424 2.13041 12.0913 1.21918 10.6469C0.307954 9.20246 -0.0296245 7.46926 0.272904 5.78843C0.575433 4.10759 1.49615 2.60087 2.85384 1.56482C4.21153 0.528759 5.90784 0.0384118 7.60892 0.190285C9.30999 0.342158 10.8926 1.12525 12.0453 2.38543C13.198 3.64562 13.8372 5.29161 13.8372 6.99945C13.8369 7.81314 13.6917 8.62027 13.4082 9.38298Z" fill="#3F3D56"/>
</svg>
