<svg width="319" height="300" viewBox="0 0 319 300" fill="none" xmlns="http://www.w3.org/2000/svg">
<g filter="url(#filter0_d_226_1539)">
<path d="M0 5.99999C0 2.68629 2.68629 0 6 0H307.056C310.37 0 313.056 2.68629 313.056 6V50.6369C313.056 53.9506 310.37 56.6369 307.056 56.6369H6.00001C2.6863 56.6369 0 53.9506 0 50.6369V5.99999Z" fill="#592F7A" fill-opacity="0.5" shape-rendering="crispEdges"/>
<path d="M0 249.179C0 245.766 2.66126 243 5.9441 243H307.112C310.395 243 313.056 245.766 313.056 249.179V293.458C313.056 296.871 310.395 299.637 307.112 299.637H5.9441C2.66127 299.637 0 296.871 0 293.458V249.179Z" fill="#592F7A" fill-opacity="0.5" shape-rendering="crispEdges"/>
<path d="M5.9441 122.542C5.9441 119.129 8.60536 116.363 11.8882 116.363H313.056C316.339 116.363 319 119.129 319 122.542V166.821C319 170.234 316.339 173 313.056 173H11.8882C8.60537 173 5.9441 170.234 5.9441 166.821V122.542Z" fill="#592F7A" fill-opacity="0.5" shape-rendering="crispEdges"/>
</g>
<defs>
<filter id="filter0_d_226_1539" x="-4" y="0" width="327" height="307.637" filterUnits="userSpaceOnUse" color-interpolation-filters="sRGB">
<feFlood flood-opacity="0" result="BackgroundImageFix"/>
<feColorMatrix in="SourceAlpha" type="matrix" values="0 0 0 0 0 0 0 0 0 0 0 0 0 0 0 0 0 0 127 0" result="hardAlpha"/>
<feOffset dy="4"/>
<feGaussianBlur stdDeviation="2"/>
<feComposite in2="hardAlpha" operator="out"/>
<feColorMatrix type="matrix" values="0 0 0 0 0 0 0 0 0 0 0 0 0 0 0 0 0 0 0.25 0"/>
<feBlend mode="normal" in2="BackgroundImageFix" result="effect1_dropShadow_226_1539"/>
<feBlend mode="normal" in="SourceGraphic" in2="effect1_dropShadow_226_1539" result="shape"/>
</filter>
</defs>
</svg>
