<svg width="38" height="40" viewBox="0 0 38 40" fill="none" xmlns="http://www.w3.org/2000/svg">
<path d="M36.9685 24.8064L33.6089 22.8226C33.948 20.9516 33.948 19.0323 33.6089 17.1613L36.9685 15.1774C37.3549 14.9516 37.5285 14.4839 37.4023 14.0484C36.5269 11.1775 35.0363 8.58069 33.0883 6.41941C32.7887 6.08876 32.2997 6.00812 31.9211 6.23392L28.5615 8.21779C27.1498 6.97586 25.5252 6.01618 23.7665 5.38715V1.42749C23.7665 0.975878 23.4589 0.580719 23.0252 0.483945C20.1308 -0.177343 17.1655 -0.145085 14.4131 0.483945C13.9793 0.580719 13.6718 0.975878 13.6718 1.42749V5.39522C11.9209 6.03231 10.2963 6.99198 8.87675 8.22585L5.52498 6.24199C5.13855 6.01618 4.65747 6.08876 4.35778 6.42747C2.40981 8.58069 0.919261 11.1775 0.0438584 14.0565C-0.0902123 14.492 0.0911775 14.9597 0.477617 15.1855L3.83727 17.1694C3.49815 19.0403 3.49815 20.9597 3.83727 22.8306L0.477617 24.8145C0.0911775 25.0403 -0.0823258 25.508 0.0438584 25.9435C0.919261 28.8145 2.40981 31.4112 4.35778 33.5725C4.65747 33.9032 5.14643 33.9838 5.52498 33.758L8.88464 31.7741C10.2963 33.0161 11.9209 33.9758 13.6796 34.6048V38.5725C13.6796 39.0241 13.9872 39.4193 14.421 39.5161C17.3153 40.1773 20.2806 40.1451 23.033 39.5161C23.4668 39.4193 23.7744 39.0241 23.7744 38.5725V34.6048C25.5252 33.9677 27.1498 33.008 28.5694 31.7741L31.929 33.758C32.3155 33.9838 32.7965 33.9112 33.0962 33.5725C35.0442 31.4193 36.5348 28.8225 37.4102 25.9435C37.5285 25.5 37.3549 25.0322 36.9685 24.8064ZM18.7191 26.4435C15.2412 26.4435 12.4099 23.5484 12.4099 19.9919C12.4099 16.4355 15.2412 13.5403 18.7191 13.5403C22.1971 13.5403 25.0283 16.4355 25.0283 19.9919C25.0283 23.5484 22.1971 26.4435 18.7191 26.4435Z" fill="#2F2E41"/>
</svg>
