<svg width="16" height="14" viewBox="0 0 16 14" fill="none" xmlns="http://www.w3.org/2000/svg">
<path d="M14.126 0H1.69512C0.759272 0 0 0.671875 0 1.5V12.5C0 13.3281 0.759272 14 1.69512 14H14.126C15.0618 14 15.8211 13.3281 15.8211 12.5V1.5C15.8211 0.671875 15.0618 0 14.126 0ZM13.9141 12.5H1.90701C1.79047 12.5 1.69512 12.4156 1.69512 12.3125V1.6875C1.69512 1.58437 1.79047 1.5 1.90701 1.5H13.9141C14.0306 1.5 14.126 1.58437 14.126 1.6875V12.3125C14.126 12.4156 14.0306 12.5 13.9141 12.5Z" fill="white"/>
</svg>
