<svg width="46" height="45" viewBox="0 0 46 45" fill="none" xmlns="http://www.w3.org/2000/svg">
<path d="M23 0C10.2944 0 0 10.0706 0 22.5C0 34.9294 10.2944 45 23 45C35.7056 45 46 34.9294 46 22.5C46 10.0706 35.7056 0 23 0ZM23 8.70968C27.5073 8.70968 31.1613 12.2843 31.1613 16.6935C31.1613 21.1028 27.5073 24.6774 23 24.6774C18.4927 24.6774 14.8387 21.1028 14.8387 16.6935C14.8387 12.2843 18.4927 8.70968 23 8.70968ZM23 39.9194C17.556 39.9194 12.6778 37.5061 9.41331 33.7319C11.1569 30.5202 14.5698 28.3065 18.5484 28.3065C18.771 28.3065 18.9935 28.3427 19.2069 28.4063C20.4125 28.7873 21.6738 29.0323 23 29.0323C24.3262 29.0323 25.5968 28.7873 26.7931 28.4063C27.0065 28.3427 27.229 28.3065 27.4516 28.3065C31.4302 28.3065 34.8431 30.5202 36.5867 33.7319C33.3222 37.5061 28.444 39.9194 23 39.9194Z" fill="#2F2E41"/>
</svg>
