<svg width="37" height="30" viewBox="0 0 37 30" fill="none" xmlns="http://www.w3.org/2000/svg">
<path d="M29.6088 11.2226L29.1347 12.0633C28.9612 12.3749 28.5912 12.5043 28.2616 12.3808C27.5794 12.1221 26.955 11.7518 26.4057 11.2873C26.1397 11.0639 26.0704 10.67 26.2438 10.3643L26.7179 9.52354C26.319 9.05321 26.0068 8.50645 25.7986 7.91265H24.8446C24.4977 7.91265 24.1971 7.65984 24.1393 7.30709C24.0236 6.60159 24.0178 5.86082 24.1393 5.12592C24.1971 4.77317 24.4977 4.51448 24.8446 4.51448H25.7986C26.0068 3.92069 26.319 3.37392 26.7179 2.90359L26.2438 2.06286C26.0704 1.75715 26.134 1.36324 26.4057 1.13983C26.955 0.675378 27.5852 0.304989 28.2616 0.0463054C28.5912 -0.0771573 28.9612 0.0521846 29.1347 0.363781L29.6088 1.2045C30.2159 1.0928 30.8345 1.0928 31.4416 1.2045L31.9157 0.363781C32.0891 0.0521846 32.4592 -0.0771573 32.7887 0.0463054C33.471 0.304989 34.0954 0.675378 34.6447 1.13983C34.9106 1.36324 34.98 1.75715 34.8065 2.06286L34.3324 2.90359C34.7314 3.37392 35.0436 3.92069 35.2517 4.51448H36.2057C36.5526 4.51448 36.8533 4.76729 36.9111 5.12004C37.0267 5.82554 37.0325 6.56632 36.9111 7.30121C36.8533 7.65396 36.5526 7.91265 36.2057 7.91265H35.2517C35.0436 8.50645 34.7314 9.05321 34.3324 9.52354L34.8065 10.3643C34.98 10.67 34.9164 11.0639 34.6447 11.2873C34.0954 11.7518 33.4652 12.1221 32.7887 12.3808C32.4592 12.5043 32.0891 12.3749 31.9157 12.0633L31.4416 11.2226C30.8403 11.3343 30.2159 11.3343 29.6088 11.2226ZM29.0017 7.76567C31.2277 9.50591 33.7658 6.92495 32.0544 4.66146C29.8285 2.91535 27.2903 5.50218 29.0017 7.76567ZM22.3354 16.8137L24.2838 17.8014C24.8678 18.1424 25.1222 18.8656 24.8909 19.5123C24.3763 20.935 23.3645 22.2402 22.4279 23.3808C22 23.904 21.26 24.0334 20.676 23.6924L18.9935 22.7047C18.0684 23.5101 16.993 24.1509 15.8194 24.5684V26.5438C15.8194 27.2258 15.3395 27.8137 14.6803 27.9313C13.258 28.1782 11.7664 28.1899 10.292 27.9313C9.62712 27.8137 9.13567 27.2316 9.13567 26.5438V24.5684C7.96198 24.1451 6.88658 23.5101 5.9615 22.7047L4.27902 23.6865C3.70085 24.0275 2.95501 23.8981 2.52716 23.3749C1.59052 22.2343 0.601843 20.9292 0.0872688 19.5123C-0.144 18.8714 0.110396 18.1483 0.69435 17.8014L2.61967 16.8137C2.39418 15.585 2.39418 14.321 2.61967 13.0863L0.69435 12.0927C0.110396 11.7518 -0.149782 11.0286 0.0872688 10.3878C0.601843 8.96502 1.59052 7.65984 2.52716 6.51928C2.95501 5.99604 3.69507 5.86669 4.27902 6.20769L5.9615 7.19539C6.88658 6.38994 7.96198 5.74911 9.13567 5.33169V3.3504C9.13567 2.6743 9.60977 2.08638 10.2689 1.9688C11.6912 1.72187 13.1887 1.71011 14.663 1.96292C15.3279 2.0805 15.8194 2.66254 15.8194 3.3504V5.32581C16.993 5.74911 18.0684 6.38406 18.9935 7.18951L20.676 6.20181C21.2542 5.86081 22 5.99016 22.4279 6.5134C23.3645 7.65396 24.3474 8.95914 24.862 10.3819C25.0932 11.0227 24.8678 11.7459 24.2838 12.0927L22.3354 13.0804C22.5608 14.3151 22.5608 15.5791 22.3354 16.8137ZM15.536 18.0542C18.9588 13.5273 13.8767 8.35947 9.42476 11.8399C6.00198 16.3669 11.0841 21.5347 15.536 18.0542ZM29.6088 28.7955L29.1347 29.6362C28.9612 29.9478 28.5912 30.0772 28.2616 29.9537C27.5794 29.695 26.955 29.3246 26.4057 28.8602C26.1397 28.6368 26.0704 28.2429 26.2438 27.9371L26.7179 27.0964C26.319 26.6261 26.0068 26.0793 25.7986 25.4855H24.8446C24.4977 25.4855 24.1971 25.2327 24.1393 24.88C24.0236 24.1745 24.0178 23.4337 24.1393 22.6988C24.1971 22.346 24.4977 22.0874 24.8446 22.0874H25.7986C26.0068 21.4936 26.319 20.9468 26.7179 20.4765L26.2438 19.6357C26.0704 19.33 26.134 18.9361 26.4057 18.7127C26.955 18.2482 27.5852 17.8779 28.2616 17.6192C28.5912 17.4957 28.9612 17.6251 29.1347 17.9367L29.6088 18.7774C30.2159 18.6657 30.8345 18.6657 31.4416 18.7774L31.9157 17.9367C32.0891 17.6251 32.4592 17.4957 32.7887 17.6192C33.471 17.8779 34.0954 18.2482 34.6447 18.7127C34.9106 18.9361 34.98 19.33 34.8065 19.6357L34.3324 20.4765C34.7314 20.9468 35.0436 21.4936 35.2517 22.0874H36.2057C36.5526 22.0874 36.8533 22.3402 36.9111 22.6929C37.0267 23.3984 37.0325 24.1392 36.9111 24.8741C36.8533 25.2268 36.5526 25.4855 36.2057 25.4855H35.2517C35.0436 26.0793 34.7314 26.6261 34.3324 27.0964L34.8065 27.9371C34.98 28.2429 34.9164 28.6368 34.6447 28.8602C34.0954 29.3246 33.4652 29.695 32.7887 29.9537C32.4592 30.0772 32.0891 29.9478 31.9157 29.6362L31.4416 28.7955C30.8403 28.9072 30.2159 28.9072 29.6088 28.7955ZM29.0017 25.3327C31.2277 27.0729 33.7658 24.4919 32.0544 22.2285C29.8285 20.4882 27.2903 23.0692 29.0017 25.3327Z" fill="white"/>
</svg>
