<svg width="40" height="30" viewBox="0 0 40 30" fill="none" xmlns="http://www.w3.org/2000/svg">
<path d="M0.544834 13.6729L13.6677 0.550104C14.8393 -0.621576 16.8703 0.198599 16.8703 1.87801V9.37676L27.4935 9.37676C28.5324 9.37676 29.3682 10.2126 29.3682 11.2515L29.3682 18.7502C29.3682 19.7891 28.5324 20.6249 27.4935 20.6249L16.8703 20.6249L16.8703 28.1236C16.8703 29.7952 14.8471 30.6232 13.6677 29.4516L0.544834 16.3287C-0.181606 15.5945 -0.181606 14.4072 0.544834 13.6729ZM24.369 0.940664V4.06515C24.369 4.58068 24.7908 5.00249 25.3063 5.00249H31.8678C33.2503 5.00249 34.3673 6.11949 34.3673 7.50208L34.3673 22.4996C34.3673 23.8822 33.2503 24.9992 31.8678 24.9992L25.3063 24.9992C24.7908 24.9992 24.369 25.421 24.369 25.9365V29.061C24.369 29.5765 24.7908 29.9983 25.3063 29.9983H31.8678C36.0077 29.9983 39.3665 26.6395 39.3665 22.4996L39.3665 7.50208C39.3665 3.36214 36.0077 0.00331879 31.8678 0.00331879H25.3063C24.7908 0.00331879 24.369 0.425125 24.369 0.940664Z" fill="white"/>
</svg>
