<svg width="9" height="15" viewBox="0 0 9 15" fill="none" xmlns="http://www.w3.org/2000/svg">
<path d="M7.2352 0.0337413C7.16696 0.0572037 7.05126 0.10706 6.98302 0.148119C6.91182 0.189178 5.3513 1.71128 3.51488 3.53253C0.53921 6.47995 0.168364 6.85828 0.109029 6.99612C-0.0363429 7.34512 -0.0363429 7.65599 0.109029 8.00499C0.168364 8.14283 0.542176 8.52409 3.52971 11.4832C7.39244 15.3076 7.02753 14.9938 7.61198 14.9938C7.92942 14.9938 7.96502 14.9879 8.13116 14.9087C8.61178 14.6741 8.89362 14.1374 8.80165 13.633C8.72452 13.2136 8.86692 13.369 5.77555 10.3072L2.93932 7.50055L5.77555 4.69097C8.86692 1.6321 8.72452 1.78753 8.80165 1.36815C8.89362 0.863713 8.61178 0.324085 8.13116 0.0953293C7.97689 0.0190771 7.91756 0.00734691 7.65648 0.00148083C7.46661 -0.00438427 7.3153 0.00734691 7.2352 0.0337413Z" fill="black"/>
</svg>
