<svg width="8" height="15" viewBox="0 0 8 15" fill="none" xmlns="http://www.w3.org/2000/svg">
<path d="M6.38499 13.8054L8 10.1814L6.49675 14.1025L6.61351 14.4133C6.42375 14.4761 6.23466 14.5351 6.04624 14.5901L4.74441 10.5306L4.72983 10.5008L4.73246 10.4933L4.6096 10.1096L0.699756 8.06704L4.50503 9.82659L4.54372 9.90354L3.56011 6.8365L1.53994e-05 4.55839L3.37718 6.301L1.11147 0.0209522L1.10407 3.84778e-06L1.11224 0.0203154L3.04113 4.92329L4.56915 2.18034L3.20057 5.34786L4.21666 8.04696L5.33878 4.72566L4.36643 8.44365L4.93146 9.94448L6.62116 5.27679L5.12819 10.4682L6.38499 13.8054Z" fill="white"/>
</svg>
